<svg xmlns="http://www.w3.org/2000/svg" viewBox="0 0 900 900" role="img" aria-labelledby="sleepTitle sleepDesc">
  <title id="sleepTitle">HERESE Sleep Latte ritual packaging</title>
  <desc id="sleepDesc">A HERESE women's wellness Sleep Latte box and ritual sachets in ivory, blush, sage, terracotta, and deep teal.</desc>
  <defs>
    <linearGradient id="bg" x1="0%" y1="0%" x2="100%" y2="100%">
      <stop offset="0%" stop-color="#f4ead9" />
      <stop offset="65%" stop-color="#efcfca" />
      <stop offset="100%" stop-color="#d7b5af" />
    </linearGradient>
    <linearGradient id="box" x1="0%" y1="0%" x2="0%" y2="100%">
      <stop offset="0%" stop-color="#fff7ec" />
      <stop offset="100%" stop-color="#ead8c8" />
    </linearGradient>
    <linearGradient id="sage" x1="0%" y1="0%" x2="100%" y2="100%">
      <stop offset="0%" stop-color="#8c9d82" />
      <stop offset="100%" stop-color="#173f3a" />
    </linearGradient>
    <filter id="shadow" x="-20%" y="-20%" width="140%" height="140%">
      <feDropShadow dx="0" dy="24" stdDeviation="22" flood-color="#532e3b" flood-opacity="0.18" />
    </filter>
  </defs>
  <rect width="900" height="900" fill="url(#bg)" />
  <circle cx="690" cy="190" r="160" fill="#fff7ec" opacity="0.28" />
  <path d="M0 710 C160 642 250 778 400 708 C548 640 670 652 900 575 L900 900 L0 900Z" fill="#173f3a" opacity="0.12" />
  <g filter="url(#shadow)">
    <path d="M160 185 L495 128 L495 750 L160 806Z" fill="url(#box)" stroke="#cbb59f" stroke-width="3" />
    <path d="M495 128 L665 207 L665 812 L495 750Z" fill="#e9d2c4" stroke="#cbb59f" stroke-width="3" />
    <path d="M160 185 L330 262 L665 207 L495 128Z" fill="#fffaf2" stroke="#cbb59f" stroke-width="3" />
    <path d="M160 635 C250 585 330 695 495 610 L495 750 L160 806Z" fill="url(#sage)" opacity="0.8" />
    <path d="M495 610 C565 565 610 625 665 592 L665 812 L495 750Z" fill="#173f3a" opacity="0.72" />
    <g transform="translate(328 335)" text-anchor="middle">
      <use href="#mark" />
      <text y="70" font-family="'Cormorant Garamond', serif" font-size="56" letter-spacing="8" fill="#173f3a">HERESE</text>
      <text y="118" font-family="'Inter', sans-serif" font-size="22" letter-spacing="6" fill="#3f2430">SLEEP LATTE</text>
      <text y="152" font-family="'Inter', sans-serif" font-size="14" letter-spacing="4" fill="#6b5651">NIGHT RITUAL POWDER</text>
      <text y="390" font-family="'Inter', sans-serif" font-size="15" letter-spacing="5" fill="#fff7ec">REST. RELEASE. RENEW.</text>
    </g>
  </g>
  <g filter="url(#shadow)" transform="translate(600 255)">
    <rect x="0" y="0" width="106" height="410" rx="28" fill="#f8ede2" stroke="#cbb59f" stroke-width="3" />
    <path d="M0 294 C33 268 71 315 106 286 L106 410 L0 410Z" fill="#173f3a" opacity="0.72" />
    <text x="53" y="128" text-anchor="middle" font-family="'Cormorant Garamond', serif" font-size="30" letter-spacing="4" fill="#173f3a">HERESE</text>
    <text x="53" y="174" text-anchor="middle" font-family="'Inter', sans-serif" font-size="16" letter-spacing="2" fill="#3f2430">SLEEP</text>
    <text x="53" y="198" text-anchor="middle" font-family="'Inter', sans-serif" font-size="16" letter-spacing="2" fill="#3f2430">LATTE</text>
  </g>
  <g filter="url(#shadow)" transform="translate(710 230) rotate(8)">
    <rect x="0" y="0" width="98" height="420" rx="28" fill="#f8ede2" stroke="#cbb59f" stroke-width="3" />
    <path d="M0 304 C30 278 65 320 98 292 L98 420 L0 420Z" fill="#c8795d" opacity="0.64" />
    <text x="49" y="135" text-anchor="middle" font-family="'Cormorant Garamond', serif" font-size="27" letter-spacing="4" fill="#173f3a">HERESE</text>
    <text x="49" y="184" text-anchor="middle" font-family="'Inter', sans-serif" font-size="15" letter-spacing="2" fill="#3f2430">REST</text>
  </g>
  <symbol id="mark" viewBox="-80 -90 160 125">
    <path d="M-62 28 C-38 8 -16 -3 0 -4 C16 -3 38 8 62 28" fill="none" stroke="#173f3a" stroke-width="3" />
    <path d="M-48 25 C-44 -2 -25 -28 -8 -42 C-12 -16 -24 10 -48 25Z" fill="#7f927a" />
    <path d="M48 25 C44 -2 25 -28 8 -42 C12 -16 24 10 48 25Z" fill="#7f927a" />
    <path d="M-22 28 C-27 2 -14 -21 -2 -34 C-1 -11 -7 12 -22 28Z" fill="#c8795d" />
    <path d="M22 28 C27 2 14 -21 2 -34 C1 -11 7 12 22 28Z" fill="#c8795d" />
    <path d="M0 28 C-5 8 -3 -8 0 -18 C3 -8 5 8 0 28Z" fill="#173f3a" />
    <circle cx="0" cy="-28" r="6" fill="#173f3a" />
    <path d="M-31 -24 C-15 -48 -4 -54 0 -54 C4 -54 15 -48 31 -24" fill="none" stroke="#173f3a" stroke-width="3" />
    <path d="M-38 -58 L-52 -78 M0 -66 L0 -88 M38 -58 L52 -78" stroke="#a8813f" stroke-width="3" />
  </symbol>
</svg>
