<svg xmlns="http://www.w3.org/2000/svg" viewBox="0 0 720 980" role="img" aria-labelledby="shotTitle shotDesc">
  <title id="shotTitle">HERESE afternoon botanical ritual sachet</title>
  <desc id="shotDesc">A HERESE botanical ritual sachet beside a golden drink with sage, terracotta, and ivory brand styling.</desc>
  <defs>
    <linearGradient id="paper" x1="0%" y1="0%" x2="0%" y2="100%">
      <stop offset="0%" stop-color="#fff7ec" />
      <stop offset="100%" stop-color="#ead8c8" />
    </linearGradient>
    <linearGradient id="greenBand" x1="0%" y1="0%" x2="100%" y2="100%">
      <stop offset="0%" stop-color="#a1aa78" />
      <stop offset="100%" stop-color="#173f3a" />
    </linearGradient>
    <filter id="softShadow" x="-20%" y="-20%" width="140%" height="140%">
      <feDropShadow dx="0" dy="22" stdDeviation="20" flood-color="#173f3a" flood-opacity="0.22" />
    </filter>
  </defs>
  <rect width="720" height="980" fill="#f4ead9" />
  <circle cx="560" cy="660" r="118" fill="#f0c74f" opacity="0.72" />
  <circle cx="560" cy="660" r="86" fill="#ffd66d" opacity="0.6" />
  <path d="M0 780 C118 716 206 832 342 762 C488 686 602 746 720 676 L720 980 L0 980Z" fill="#173f3a" opacity="0.88" />
  <g filter="url(#softShadow)">
    <rect x="178" y="116" width="330" height="676" rx="42" fill="url(#paper)" stroke="#cbb59f" stroke-width="4" />
    <path d="M178 560 C250 514 326 622 508 532 L508 792 L178 792Z" fill="url(#greenBand)" opacity="0.82" />
    <path d="M219 146 H467 M219 760 H467" stroke="#d6c4b0" stroke-width="3" stroke-dasharray="10 12" />
    <g text-anchor="middle">
      <text x="343" y="252" font-family="'Cormorant Garamond', serif" font-size="74" letter-spacing="8" fill="#173f3a">HERESE</text>
      <text x="343" y="302" font-family="'Inter', sans-serif" font-size="22" letter-spacing="8" fill="#3f2430">4PM RITUAL</text>
      <text x="343" y="352" font-family="'Cormorant Garamond', serif" font-size="38" fill="#173f3a">Kesar Nimbu Balance</text>
      <text x="343" y="392" font-family="'Inter', sans-serif" font-size="18" fill="#5e5650">For cravings, mood, and hormonal rhythm</text>
      <text x="343" y="708" font-family="'Inter', sans-serif" font-size="17" letter-spacing="5" fill="#fff7ec">FOLD. POUR. STIR.</text>
    </g>
    <g transform="translate(343 472)">
      <path d="M-68 50 C-38 18 -2 8 52 -6" stroke="#173f3a" stroke-width="4" fill="none" />
      <circle cx="-50" cy="54" r="8" fill="#c8795d" />
      <circle cx="-12" cy="30" r="6" fill="#a8813f" />
      <circle cx="24" cy="10" r="7" fill="#e7bd70" />
      <path d="M16 -16 C48 -44 86 -30 88 2 C56 12 28 9 16 -16Z" fill="#f0c74f" opacity="0.9" />
      <path d="M-42 18 C-76 -8 -62 -44 -24 -44 C-22 -14 -24 5 -42 18Z" fill="#7f927a" />
      <path d="M-6 2 C-6 -32 30 -45 52 -20 C28 -4 10 3 -6 2Z" fill="#7f927a" />
      <path d="M-84 74 C-40 42 14 76 70 34" stroke="#c8795d" stroke-width="5" fill="none" opacity="0.78" />
    </g>
  </g>
  <g fill="#fff7ec" opacity="0.92">
    <text x="360" y="854" text-anchor="middle" font-family="'Inter', sans-serif" font-size="17" letter-spacing="6">POWERED BY NATURE</text>
    <text x="360" y="906" text-anchor="middle" font-family="'Cormorant Garamond', serif" font-size="30" font-style="italic" letter-spacing="5">made for every stage of you</text>
  </g>
</svg>
