<svg xmlns="http://www.w3.org/2000/svg" viewBox="0 0 760 185" role="img" aria-labelledby="hereseTitle hereseDesc">
  <title id="hereseTitle">HERESE</title>
  <desc id="hereseDesc">HERESE for every stage horizontal logo with botanical woman mark.</desc>
  <defs>
    <linearGradient id="leaf" x1="0%" y1="100%" x2="100%" y2="0%">
      <stop offset="0%" stop-color="#173f3a" />
      <stop offset="100%" stop-color="#7f927a" />
    </linearGradient>
    <linearGradient id="petal" x1="0%" y1="0%" x2="100%" y2="100%">
      <stop offset="0%" stop-color="#c8795d" />
      <stop offset="100%" stop-color="#e6b09a" />
    </linearGradient>
  </defs>

  <g transform="translate(82 88)" fill="none" stroke-linecap="round" stroke-linejoin="round">
    <path d="M-61 38 C-38 17 -16 6 0 5 C16 6 38 17 61 38" stroke="#173f3a" stroke-width="4" opacity="0.78" />
    <path d="M-51 34 C-48 4 -29 -26 -8 -43 C-13 -14 -25 13 -51 34Z" fill="url(#leaf)" stroke="#173f3a" stroke-width="2.3" />
    <path d="M51 34 C48 4 29 -26 8 -43 C13 -14 25 13 51 34Z" fill="url(#leaf)" stroke="#173f3a" stroke-width="2.3" />
    <path d="M-24 36 C-29 6 -15 -21 -2 -35 C-1 -10 -8 15 -24 36Z" fill="url(#petal)" stroke="#b56c52" stroke-width="2.3" />
    <path d="M24 36 C29 6 15 -21 2 -35 C1 -10 8 15 24 36Z" fill="url(#petal)" stroke="#b56c52" stroke-width="2.3" />
    <path d="M0 38 C-6 15 -4 -2 0 -15 C4 -2 6 15 0 38Z" fill="#173f3a" />
    <circle cx="0" cy="-27" r="6.5" fill="#173f3a" />
    <path d="M-30 -22 C-14 -47 -4 -52 0 -52 C4 -52 14 -47 30 -22" stroke="#173f3a" stroke-width="4" />
    <path d="M-43 -60 L-63 -92 M-24 -70 L-31 -103 M0 -74 L0 -113 M24 -70 L31 -103 M43 -60 L63 -92" stroke="#a8813f" stroke-width="2.8" opacity="0.86" />
    <path d="M-53 -45 C-34 -80 -16 -96 0 -96 C16 -96 34 -80 53 -45" stroke="#a8813f" stroke-width="2" opacity="0.58" />
    <circle cx="0" cy="-60" r="4.6" fill="#b48246" />
  </g>

  <g fill="#173f3a">
    <text x="158" y="82" font-family="'Cormorant Garamond', 'Times New Roman', serif" font-size="84" font-weight="500" letter-spacing="10">HERESE</text>
    <text x="348" y="145" text-anchor="middle" font-family="'Cormorant Garamond', 'Times New Roman', serif" font-size="25" font-style="italic" letter-spacing="12">for every stage</text>
  </g>
</svg>
